<svg xmlns="http://www.w3.org/2000/svg" width="32" height="32">
    <path style="stroke:none;fill-rule:evenodd;fill:#000;fill-opacity:1" d="M.855.094C.387.258 0 .82 0 1.332c0 .11.04.313.086.457.078.238.371.547 3.039 3.227l2.953 2.96-.715.66a25.896 25.896 0 0 0-4.578 5.645C.105 15.411.027 15.59.027 16c0 .402.102.645.696 1.625a25.83 25.83 0 0 0 4.02 5.152c1.366 1.368 2.398 2.192 3.792 3.035 1.88 1.137 3.707 1.793 5.813 2.086.742.106 2.593.09 3.386-.023 2.036-.297 4.078-1.016 5.68-2l.348-.215 3.09 3.082c2.8 2.793 3.12 3.094 3.359 3.172.52.172 1.02.059 1.39-.312.407-.403.504-1.02.247-1.528-.082-.172-4.024-4.14-14.953-15.066C3.156 1.278 2.035.168 1.789.086a1.37 1.37 0 0 0-.934.008M14.961 4.03c-1.098.114-2.078.297-2.367.446-.453.234-.7.648-.7 1.175 0 .383.102.657.336.899.415.433.793.492 1.903.285 2.066-.379 4.351-.09 6.402.812 2.445 1.079 4.902 3.16 6.988 5.926.618.817 1.598 2.305 1.598 2.43 0 .172-1.289 2.07-2.027 2.988-.5.613-.586.778-.625 1.14-.106 1.04 1.023 1.786 1.941 1.282.215-.113.395-.293.758-.746.945-1.184 1.996-2.762 2.578-3.875.2-.383.227-.473.227-.79a1.259 1.259 0 0 0-.172-.698c-.574-1.164-1.88-3.075-3.113-4.559-.676-.812-2.391-2.5-3.196-3.14-2.437-1.942-4.96-3.094-7.625-3.473-.582-.082-2.445-.149-2.906-.102m-3.805 9.653a5.373 5.373 0 0 0-.41 3.78 5.429 5.429 0 0 0 3.164 3.583c1.43.57 3.035.496 4.406-.203l.422-.215 1.547 1.55 1.55 1.548-.757.37c-3.46 1.688-7.129 1.626-10.504-.183-2.726-1.46-5.449-4.195-7.48-7.512l-.223-.367.086-.187c.14-.29 1.047-1.657 1.492-2.243a23.229 23.229 0 0 1 2.832-3.109l.692-.629 1.699 1.7 1.7 1.695-.216.422m3.906 3.273c.91.91 1.637 1.668 1.618 1.688-.02.02-.211.058-.43.09-1.629.234-3.14-1.184-3.004-2.813.035-.41.082-.613.133-.613.02 0 .777.742 1.684 1.648"/>
</svg>
