<svg xmlns="http://www.w3.org/2000/svg" width="32" height="32">
    <path style="stroke:none;fill-rule:evenodd;fill:#000;fill-opacity:1" d="m15.04 4.031-.692.078c-1.942.227-3.922.934-5.82 2.082-2.903 1.754-5.712 4.7-7.805 8.184-.594.98-.696 1.223-.696 1.625 0 .402.102.645.696 1.625a25.467 25.467 0 0 0 4.047 5.176c1.34 1.34 2.398 2.187 3.757 3.008 1.887 1.14 3.707 1.796 5.82 2.09.75.105 2.696.093 3.493-.024 2.719-.398 5.215-1.535 7.652-3.48.813-.649 2.528-2.336 3.195-3.141 1.235-1.488 2.54-3.399 3.114-4.559.125-.21.183-.453.172-.695a1.246 1.246 0 0 0-.172-.695c-.574-1.164-1.88-3.075-3.113-4.559-.676-.812-2.391-2.5-3.196-3.14-2.437-1.946-4.96-3.094-7.625-3.473-.578-.082-2.422-.149-2.828-.102m2.188 2.711c3.73.453 7.226 2.774 10.308 6.844.371.492 1.254 1.805 1.508 2.242.121.207.156.125-.598 1.281-2.195 3.36-5.07 5.993-7.906 7.239-3.273 1.441-6.754 1.285-9.98-.442-2.125-1.136-4.243-3.047-6.102-5.5-.387-.511-1.363-1.96-1.52-2.261-.093-.18-.101-.165.598-1.223 2-3.05 4.496-5.477 7.024-6.828 2.144-1.149 4.46-1.617 6.668-1.352m-2.149 4.008a5.246 5.246 0 0 0-2.84 1.488 5.2 5.2 0 0 0-1.554 4c.129 2.446 1.777 4.41 4.168 4.969.62.145 1.761.137 2.375-.02a5.376 5.376 0 0 0 3.96-3.96c.157-.614.165-1.754.02-2.375-.652-2.801-3.348-4.606-6.129-4.102m1.465 2.64c1.203.255 2.125 1.383 2.125 2.61 0 1.441-1.227 2.668-2.668 2.668S13.332 17.441 13.332 16c0-1.2.879-2.309 2.047-2.59a2.85 2.85 0 0 1 1.164-.02"/>
</svg>
